<svg fill="#fff" xmlns="http://www.w3.org/2000/svg" viewBox="0 0 128 128" width="64" height="64"><path d="M64 2C29.8 2 2 29.8 2 64c0 10.5 2.6 20.8 7.7 29.9l-5.3 19.4c-.9 3.1 0 6.3 2.3 8.6s5.5 3.2 8.6 2.4l20.2-5.3c8.8 4.6 18.6 7 28.6 7 34.2 0 62-27.8 62-62 0-16.6-6.4-32.1-18.1-43.8C96.2 8.5 80.6 2 64 2zm0 6c15 0 29.1 5.8 39.6 16.4C114.2 35 120.1 49.1 120 64c0 30.9-25.1 56-56 56-9.3 0-18.6-2.4-26.8-6.8-.4-.2-.9-.4-1.4-.4-.3 0-.5 0-.8.1l-21.3 5.6c-1.5.4-2.5-.4-2.9-.8-.4-.4-1.2-1.4-.8-2.9l5.6-20.6c.2-.8.1-1.6-.3-2.3C10.5 83.5 8 73.8 8 64 8 33.1 33.1 8 64 8zm0 9c-25.9 0-47 21-47 47a47 47 0 006.3 23.5c1.6 2.8 2 6.1 1.2 9.2l-2.9 10.5 11.2-2.9c1-.3 2-.4 3-.4 2 0 4 .5 5.7 1.5C48.4 109 56.1 111 64 111c25.9 0 47-21.1 47-47 0-12.6-4.9-24.4-13.8-33.3C88.4 21.9 76.6 17 64 17zM43.1 36.7h2.8c1.1 0 2.2.1 3.3 2.5 1.3 2.9 4.2 10.2 4.5 10.9.4.7.6 1.6.1 2.6s-.7 1.6-1.5 2.5c-.7.9-1.6 1.9-2.2 2.6-.7.7-1.5 1.5-.6 3s3.8 6.3 8.2 10.2c5.6 5 10.4 6.6 11.9 7.3 1.5.7 2.3.6 3.2-.4.9-1 3.7-4.3 4.7-5.8s2-1.2 3.3-.7c1.4.5 8.6 4.1 10.1 4.8 1.5.7 2.5 1.1 2.8 1.7.4.8.4 3.7-.8 7.2-1.2 3.4-7.2 6.8-10 7-2.7.2-5.2 1.2-17.7-3.7-15-5.9-24.5-21.3-25.2-22.3-.7-1-6-8-6-15.3 0-7.3 3.8-10.8 5.2-12.3 1.4-1.5 2.9-1.8 3.9-1.8z"/></svg>