<svg width="62" height="55" fill="none" xmlns="http://www.w3.org/2000/svg"><path d="M30.75 36.327c-.657 0-1.19.512-1.19 1.143s.533 1.143 1.19 1.143h.011c.657 0 1.184-.512 1.184-1.143s-.538-1.143-1.195-1.143zM6.62 32.09a1.223 1.223 0 00-1.682 0 1.13 1.13 0 00-.349.808c0 .302.127.596.349.808a1.224 1.224 0 001.681 0c.222-.212.35-.507.35-.808 0-.3-.128-.595-.35-.808z" fill="#000"/><path d="M56.09.437H5.185C2.429.437.188 2.591.188 5.237V37.47c0 3.151 2.668 5.715 5.948 5.715h18.079v4.343h-1.666c-2.754 0-4.995 2.154-4.995 4.801v.914c0 .632.532 1.143 1.19 1.143H42.53c.657 0 1.19-.511 1.19-1.143v-.914c0-2.647-2.241-4.8-4.996-4.8H37.06v-4.344h18.08c3.278 0 5.946-2.564 5.946-5.715V5.238c0-2.647-2.24-4.8-4.995-4.8zM38.726 49.814c1.363 0 2.486 1.007 2.606 2.286H19.943c.121-1.28 1.244-2.286 2.606-2.286h16.176zM26.593 47.53v-4.344h8.088v4.343h-8.088zm32.114-10.06c0 1.892-1.6 3.43-3.568 3.43H6.136c-1.968 0-3.569-1.538-3.569-3.43V5.239c0-1.387 1.174-2.515 2.617-2.515h24.264v29.032H10.06c-.657 0-1.19.512-1.19 1.143 0 .632.533 1.143 1.19 1.143h48.646v3.429zm0-5.714h-26.88V2.723H56.09c1.442 0 2.616 1.128 2.616 2.515v26.517z" fill="#000"/><path d="M53.965 5.01H35.41c-.657 0-1.19.51-1.19 1.142v8.23c0 .63.533 1.143 1.19 1.143h18.555c.657 0 1.19-.512 1.19-1.143v-8.23c0-.631-.533-1.143-1.19-1.143zm-1.19 8.229H36.6V7.295h16.175v5.944zm-37.651 4.343H7.37c-.657 0-1.19.511-1.19 1.143 0 .631.533 1.143 1.19 1.143h7.754c.657 0 1.19-.512 1.19-1.143 0-.632-.533-1.143-1.19-1.143zm10.016 0h-5.923c-.656 0-1.189.511-1.189 1.143 0 .631.533 1.143 1.19 1.143h5.922c.657 0 1.19-.512 1.19-1.143 0-.632-.533-1.143-1.19-1.143zm0 9.142h-2.214c-.657 0-1.19.512-1.19 1.143 0 .632.533 1.143 1.19 1.143h2.214c.657 0 1.19-.511 1.19-1.143 0-.63-.533-1.143-1.19-1.143zm-6.957.002H7.37c-.657 0-1.19.511-1.19 1.143 0 .63.533 1.143 1.19 1.143h10.813c.657 0 1.19-.512 1.19-1.143 0-.632-.533-1.143-1.19-1.143zm-6.936-4.572H7.37c-.657 0-1.19.511-1.19 1.142 0 .632.533 1.143 1.19 1.143h3.877c.657 0 1.19-.511 1.19-1.143 0-.63-.533-1.142-1.19-1.142zm13.893 0h-8.18c-.658 0-1.19.511-1.19 1.142 0 .632.532 1.143 1.19 1.143h8.18c.657 0 1.19-.511 1.19-1.143 0-.63-.533-1.142-1.19-1.142zm28.825-4.572H35.463c-.657 0-1.19.511-1.19 1.143 0 .631.533 1.143 1.19 1.143h18.502c.657 0 1.19-.512 1.19-1.143 0-.632-.533-1.143-1.19-1.143zm.841 9.478a1.22 1.22 0 00-1.682 0 1.123 1.123 0 00-.348.809c0 .3.126.595.348.808a1.222 1.222 0 001.682 0 1.13 1.13 0 00.349-.808c0-.302-.128-.596-.349-.808zm-5.673-.334h-13.67c-.657 0-1.19.511-1.19 1.143 0 .63.533 1.143 1.19 1.143h13.67c.656 0 1.189-.512 1.189-1.143 0-.632-.533-1.143-1.19-1.143zm4.832-4.572H35.463c-.657 0-1.19.511-1.19 1.142 0 .632.533 1.143 1.19 1.143h18.502c.657 0 1.19-.511 1.19-1.143 0-.63-.533-1.142-1.19-1.142zM6.283 11.204l1.642-1.837c.34-.38.34-.998 0-1.378a.808.808 0 00-1.232 0l-2.258 2.526c-.34.38-.34.997 0 1.378l2.258 2.525c.17.19.393.286.616.286a.824.824 0 00.616-.286c.34-.38.34-.997 0-1.378l-1.642-1.836zm20.835-.689L24.86 7.989a.807.807 0 00-1.232 0c-.34.38-.34.998 0 1.378l1.642 1.837-1.642 1.837c-.34.38-.34.997 0 1.378.17.19.393.285.616.285a.824.824 0 00.616-.285l2.258-2.526c.34-.38.34-.998 0-1.378zM10.663 12.77l1.309-4.058h.923L11 13.995h-.688L8.396 8.712h.923l1.343 4.058zm4.844 0l1.308-4.058h.923l-1.894 5.283h-.689l-1.914-5.283h.923l1.343 4.058zm4.844 0l1.308-4.058h.923l-1.895 5.283H20l-1.914-5.283h.923l1.343 4.058z" fill="#000"/></svg>