<svg width="46" height="67" fill="none" xmlns="http://www.w3.org/2000/svg"><g filter="url(#filter0_d)"><path d="M10.784 29.504L37.657 5.76a1.02 1.02 0 00.254-.333.922.922 0 000-.788 1.027 1.027 0 00-.254-.333 1.191 1.191 0 00-.38-.226 1.305 1.305 0 00-.898 0 1.191 1.191 0 00-.38.226L8.343 28.765a1.03 1.03 0 00-.254.336.933.933 0 000 .794c.059.126.145.24.254.337l27.654 24.472c.225.191.525.297.836.296a1.28 1.28 0 00.645-.178c.19-.114.34-.275.427-.463a.925.925 0 00.066-.594 1.003 1.003 0 00-.315-.528L10.784 29.504z" fill="#283645"/><path d="M10.784 29.504L37.657 5.76a1.02 1.02 0 00.254-.333.922.922 0 000-.788 1.027 1.027 0 00-.254-.333 1.191 1.191 0 00-.38-.226 1.305 1.305 0 00-.898 0 1.191 1.191 0 00-.38.226L8.343 28.765a1.03 1.03 0 00-.254.336.933.933 0 000 .794c.059.126.145.24.254.337l27.654 24.472c.225.191.525.297.836.296a1.28 1.28 0 00.645-.178c.19-.114.34-.275.427-.463a.925.925 0 00.066-.594 1.003 1.003 0 00-.315-.528L10.784 29.504z" stroke="#000" stroke-width="7"/></g><defs><filter id="filter0_d" x=".5" y=".5" width="45" height="66" filterUnits="userSpaceOnUse" color-interpolation-filters="sRGB"><feFlood flood-opacity="0" result="BackgroundImageFix"/><feColorMatrix in="SourceAlpha" values="0 0 0 0 0 0 0 0 0 0 0 0 0 0 0 0 0 0 127 0"/><feOffset dy="4"/><feGaussianBlur stdDeviation="2"/><feColorMatrix values="0 0 0 0 0 0 0 0 0 0 0 0 0 0 0 0 0 0 0.25 0"/><feBlend in2="BackgroundImageFix" result="effect1_dropShadow"/><feBlend in="SourceGraphic" in2="effect1_dropShadow" result="shape"/></filter></defs></svg>