<svg xmlns="http://www.w3.org/2000/svg" viewBox="0 0 54 54" fill="#f07"><path d="M19.68 14.8h-6.52V28h6.68c.96 0 1.773-.187 2.44-.56.666-.374 1.153-.773 1.46-1.2.306-.427.546-1.04.72-1.84.173-.801.267-1.4.28-1.801.013-.399.02-.973.02-1.72 0-4.052-1.694-6.079-5.08-6.079z"/><path d="M41.824 0H12.176C5.462 0 0 5.462 0 12.176v29.648C0 48.538 5.462 54 12.176 54h29.648C48.538 54 54 48.538 54 41.824V12.176C54 5.462 48.538 0 41.824 0zM27.56 23.26c-.054.681-.22 1.534-.5 2.561-.28 1.026-.66 1.866-1.14 2.52-.48.654-1.213 1.227-2.2 1.72-.987.494-2.16.74-3.52.74h-7.04V40h-2.88V12h9.64c2.613 0 4.553.813 5.82 2.44 1.266 1.626 1.9 3.76 1.9 6.399 0 .934-.027 1.741-.08 2.421zM43.2 38.94c-1.2 1.106-2.954 1.66-5.26 1.66-2.307 0-4.114-.547-5.42-1.64-1.307-1.093-1.987-2.44-2.04-4.04l2.8-.12c.106.987.6 1.754 1.48 2.3.88.547 1.893.82 3.04.82s2.14-.26 2.98-.78c.84-.52 1.26-1.266 1.26-2.239s-.36-1.747-1.08-2.32c-.72-.573-1.6-1.026-2.64-1.36-1.04-.333-2.086-.686-3.14-1.06a7.36 7.36 0 01-2.78-1.76c-.987-.934-1.48-2.073-1.48-3.42s.54-2.601 1.62-3.761 2.833-1.739 5.26-1.739c.854 0 1.653.1 2.4.3.746.2 1.28.394 1.6.58l.48.279-.92 2.521c-.854-.666-1.974-1-3.36-1-1.387 0-2.42.26-3.1.78-.68.52-1.02 1.18-1.02 1.979 0 .88.426 1.574 1.28 2.08.853.507 1.813.934 2.88 1.28 1.066.347 2.126.733 3.18 1.16 1.053.427 1.946 1.094 2.68 2s1.1 2.106 1.1 3.6c0 1.494-.6 2.794-1.8 3.9z"/></svg>