<svg width="46" height="67" fill="none" xmlns="http://www.w3.org/2000/svg"><g filter="url(#filter0_d)"><path d="M35.216 29.496L8.343 53.24a1.027 1.027 0 00-.254.333.922.922 0 000 .788c.06.125.145.238.254.333.109.097.238.174.38.226a1.304 1.304 0 00.899 0 1.19 1.19 0 00.38-.226l27.654-24.46c.109-.096.195-.21.255-.336a.933.933 0 000-.794 1.037 1.037 0 00-.255-.337L10.002 4.296A1.287 1.287 0 009.166 4a1.28 1.28 0 00-.645.178c-.19.114-.34.275-.427.463a.925.925 0 00-.066.594c.044.2.154.383.315.528l26.873 23.733z" fill="#283645"/><path d="M35.216 29.496L8.343 53.24a1.027 1.027 0 00-.254.333.922.922 0 000 .788c.06.125.145.238.254.333.109.097.238.174.38.226a1.304 1.304 0 00.899 0 1.19 1.19 0 00.38-.226l27.654-24.46c.109-.096.195-.21.255-.336a.933.933 0 000-.794 1.037 1.037 0 00-.255-.337L10.002 4.296A1.287 1.287 0 009.166 4a1.28 1.28 0 00-.645.178c-.19.114-.34.275-.427.463a.925.925 0 00-.066.594c.044.2.154.383.315.528l26.873 23.733z" stroke="#000" stroke-width="7"/></g><defs><filter id="filter0_d" x=".5" y=".5" width="45" height="66" filterUnits="userSpaceOnUse" color-interpolation-filters="sRGB"><feFlood flood-opacity="0" result="BackgroundImageFix"/><feColorMatrix in="SourceAlpha" values="0 0 0 0 0 0 0 0 0 0 0 0 0 0 0 0 0 0 127 0"/><feOffset dy="4"/><feGaussianBlur stdDeviation="2"/><feColorMatrix values="0 0 0 0 0 0 0 0 0 0 0 0 0 0 0 0 0 0 0.25 0"/><feBlend in2="BackgroundImageFix" result="effect1_dropShadow"/><feBlend in="SourceGraphic" in2="effect1_dropShadow" result="shape"/></filter></defs></svg>