<svg height="512pt" fill="#f07" viewBox="-27 0 512 512" width="512pt" xmlns="http://www.w3.org/2000/svg"><path d="M0 0l44.266 461.5 185.16 50.5 185.164-50.5L458.855 0zm386.477 437.82l-157.051 42.832L72.379 437.82 33.28 30.242h392.29zm0 0"/><path d="M99.637 275.934h178.261l-2.945 45.933-44.363 14.48-46.735-14.437v-25.039H98.04v86.219l132.527 41.219 123.489-35.918 16.086-194.914-193.957-2.227-2.243-20.055 196.864.004V88.465H78.71zm240.93-157.227v22.25l-200.438-.008 8.973 80.235 188.226 2.16-11.7 141.816-94.769 27.567-102.574-31.903v-33.707h25.328v17.102l77.227 23.86 72.98-23.821 6.32-98.567H126.692l-14.175-126.984zm0 0"/></svg>