<svg xmlns="http://www.w3.org/2000/svg" xmlns:xlink="http://www.w3.org/1999/xlink"><defs><filter id="filter0_d" x=".5" y=".5" width="45" height="66" filterUnits="userSpaceOnUse" color-interpolation-filters="sRGB"><feFlood flood-opacity="0" result="BackgroundImageFix"/><feColorMatrix in="SourceAlpha" values="0 0 0 0 0 0 0 0 0 0 0 0 0 0 0 0 0 0 127 0"/><feOffset dy="4"/><feGaussianBlur stdDeviation="2"/><feColorMatrix values="0 0 0 0 0 0 0 0 0 0 0 0 0 0 0 0 0 0 0.25 0"/><feBlend in2="BackgroundImageFix" result="effect1_dropShadow"/><feBlend in="SourceGraphic" in2="effect1_dropShadow" result="shape"/></filter><clipPath id="clip0"><path fill="#fff" transform="rotate(-90 6 6)" d="M0 0h12v7.4H0z"/></clipPath><filter id="filter0_d" x=".5" y=".5" width="45" height="66" filterUnits="userSpaceOnUse" color-interpolation-filters="sRGB"><feFlood flood-opacity="0" result="BackgroundImageFix"/><feColorMatrix in="SourceAlpha" values="0 0 0 0 0 0 0 0 0 0 0 0 0 0 0 0 0 0 127 0"/><feOffset dy="4"/><feGaussianBlur stdDeviation="2"/><feColorMatrix values="0 0 0 0 0 0 0 0 0 0 0 0 0 0 0 0 0 0 0.25 0"/><feBlend in2="BackgroundImageFix" result="effect1_dropShadow"/><feBlend in="SourceGraphic" in2="effect1_dropShadow" result="shape"/></filter></defs><symbol id="icon-browser"><path fill="#4D4D4D" d="M356 0H4C1.8 0 0 1.8 0 4v36h360V4c0-2.2-1.8-4-4-4zM22.991 27a7 7 0 110-14 7 7 0 010 14zm23.011 0a7 7 0 110-14 7 7 0 010 14zm23.011 0a7 7 0 110-14 7 7 0 010 14z"/></symbol><symbol id="icon-burger"><path fill="#f07" d="M0 0h50v50H0z"/><path fill-rule="evenodd" clip-rule="evenodd" d="M13.75 32h22.5v-1h-22.5v1zm0-6.25h22.5v-1h-22.5v1zm0-7.25v1h22.5v-1h-22.5z" fill="#000"/></symbol><symbol id="icon-close"><path d="M20.849 0L0 20.849 2.151 23 23 2.151 20.849 0z" fill="#fff"/><path d="M2.151 0L0 2.151 20.849 23 23 20.849 2.151 0z" fill="#fff"/></symbol><symbol id="icon-css" viewBox="0 0 470.699 470.699"><path d="M426.981 0H43.701C34.52 0 27.632 7.769 28.442 16.949L63.45 409.254c.811 9.173 8.745 18.774 17.644 21.253L219.1 468.842c8.887 2.463 23.413 2.479 32.313.032l138.177-38.281c8.901-2.472 16.835-11.986 17.645-21.175l35.023-392.469C443.068 7.769 436.209 0 426.981 0zM360.51 141.611a.134.134 0 01-.112.117.134.134 0 01-.144-.077L252.13 185.96a3.485 3.485 0 001.321 6.708h84.103a15.772 15.772 0 0115.682 17.443l-13.141 123.273a15.77 15.77 0 01-10.447 13.205l-89.269 31.41a15.761 15.761 0 01-10.397.025l-88.852-30.778a15.771 15.771 0 01-10.52-13.228l-5.957-55.828a10.388 10.388 0 0110.331-11.492h24.725c5.313 0 9.769 4.007 10.331 9.289l3.655 34.316 61.521 21.385 61.803-21.58 7.559-71.17H129.835a10.39 10.39 0 01-10.327-9.25l-3.327-30.164a10.388 10.388 0 016.366-10.745l111.837-46.109a2.872 2.872 0 00-1.093-5.528H115.542a6.926 6.926 0 01-6.888-6.201l-3.406-32.421a6.927 6.927 0 016.887-7.648h246.379a6.928 6.928 0 016.881 7.707l-4.885 43.032z" fill="#f07"/></symbol><symbol id="icon-email"><path d="M24.227 0H1.773C.768 0 0 .765 0 1.765v16.47C0 19.235.768 20 1.773 20h22.454C25.232 20 26 19.235 26 18.235V1.765C26 .765 25.232 0 24.227 0zm0 17l-4.668-4.647a.86.86 0 00-1.24 0 .85.85 0 000 1.235l4.667 4.647H3.014l4.668-4.647a.85.85 0 000-1.235.86.86 0 00-1.241 0L1.773 17V5.706l10.636 8a.955.955 0 00.532.176.955.955 0 00.532-.176l10.754-8V17zm0-15.235V3.47l-11.286 8.352L1.773 3.471V1.765h22.454z" fill="#f07"/></symbol><symbol id="icon-figma" viewBox="0 0 1024 1024"><circle class="st0" cx="512" cy="512" r="512" fill="#f07"/><path class="st1" d="M512 512c0-47.1 38.2-85.3 85.3-85.3s85.3 38.2 85.3 85.3-38.2 85.3-85.3 85.3S512 559.1 512 512zM341.3 682.7c0-47.1 38.2-85.3 85.3-85.3H512v85.3c0 47.1-38.2 85.3-85.3 85.3s-85.4-38.2-85.4-85.3zM512 256v170.7h85.3c47.1 0 85.3-38.2 85.3-85.3S644.5 256 597.3 256H512zm-170.7 85.3c0 47.1 38.2 85.3 85.3 85.3H512V256h-85.3c-47.2 0-85.4 38.2-85.4 85.3zm0 170.7c0 47.1 38.2 85.3 85.3 85.3H512V426.7h-85.3c-47.2 0-85.4 38.2-85.4 85.3z" fill="#fff"/></symbol><symbol id="icon-github" viewBox="0 0 512 512"><path d="M218.7 445.5c-6.6.7-12.2 1.4-17.8 2-29.1 2.9-54.5-5-73.7-27.7-6-7.1-9.4-16.3-14.5-24.2-7.9-12.4-16-24.7-24.7-36.6-3-4.1-8.2-6.5-12.2-10-1.3-1.1-1.7-3.2-2.6-4.9 1.8-.7 3.5-1.9 5.3-2.1 23-2.1 39.2 8.5 50.5 27.6 14.1 23.8 34.5 36.8 62.2 36.8 8 0 16-2.7 23.9-4.5 1.5-.4 3.3-2.7 3.5-4.4 1.4-10.4 2.7-20.8 7.5-30.3 1.8-3.5 3.9-6.8 6-10.4-8.1-1.6-15.9-2.8-23.6-4.7-35.5-9-64.8-26.8-81.8-60.6-6.6-13.2-10.3-27.4-10.8-42.2-.8-22.8-.5-45.7 4.1-68.2 3.3-15.8 9.3-30.5 21.3-41.9 2.6-2.5 3.1-4.7 1.7-8.5-6.7-18.7-7.4-37.7-1.7-56.8 1.2-4.1 2.3-8.2 3.5-12.5 27.4 5.2 43.7 23.7 59 44.2 15.8-11.7 34.5-12.7 52.7-13.9 21.6-1.4 43.3-1.1 64.8 2.4 11.2 1.8 18.1 4.1 29 10.6 9.4-9.7 18.2-19.5 27.9-28.4 7.7-7.1 17.3-11.6 27.7-14 2.9-.7 4.4-.4 5.6 2.8 8.1 22.1 9.3 44.1.4 66.2-1.2 3-1.1 5.1 1.4 7.5 14.4 13.7 21 31.4 23.2 50.5 2 17.7 3.1 35.5 3.1 53.3 0 25.3-7.5 48.5-23.4 68.4-11.2 14.1-25.7 24.2-42.1 31.8-15.9 7.3-32.5 11.5-49.7 13.7-.4.1-.8.4-1.5.7 11.8 16.9 13.7 35.9 13.5 55.6-.3 28.7-.2 57.3 0 86 0 4.5-1.3 5.6-5.7 5.6-35.5-.2-71-.2-106.5 0-4.4 0-5.8-1.4-5.8-5.7.2-15.5.1-31 .1-46.5.2-2.3.2-4.3.2-6.7z"/></symbol><symbol id="icon-gulp"><path d="M20.208 25.912l.849-1.448s-1.927.787-5.145.787c-3.224 0-5.12-.756-5.12-.756l.948 1.579.333 4.968c0 .543 1.749.959 3.916.959 2.161 0 3.917-.416 3.917-.959l.301-5.109zm.819-9.396c-1.021.063-1.537 1.203-2.053 2.405-.187.439-.837 2.319-1.26 2.084-.427-.229.547-1.771.823-2.688-.317.229-1.473 1.131-1.771.287-.479.417-1.505.641-1.391-.443-.255.464-.828 1.099-1.515.823-.901-.344.525-3.219.88-3.077.353.161-.073.801-.183 1.057-.251.563-.531 1.281-.344 1.416.323.26 1.208-.932 1.229-.959.161-.219.636-1.635 1.016-1.473.38.177-.948 2.057-.453 2.432.099.084.511-.036.76-.317.156-.156.104-.557.636-1.833.541-1.281 1.02-2.875 1.385-2.756.369.12.068.939-.068 1.256-.62 1.437-1.688 3.792-1.188 3.615.5-.183.761-.183 1.261-.76.5-.579.459-1.537.796-1.516.324.02.281.339.204.557.317-.36 1.531-1.156 1.812-.38.344.916-1.735 2.26-1.219 2.176.5-.057 1.317-.577 1.683-1.057l.959-8.667s-.98.803-7.152.803c-6.167 0-7.047-.781-7.047-.781l.817 7.907c.443-1.235 1.48-3.751 3.1-3.652.739.043 1.733 1.48.875 1.516-.36.021-.401-.719-.817-.817-.319-.057-.74.183-1.016.464-.541.536-1.74 2.671-1.579 3.733.199 1.355 1.875-.463 2.156-1 .199-.38.339-1.52.756-1.4.443.119-.037 1.301-.36 2.317-.359 1.161-.541 2.375-.973 2.235-.443-.141.276-1.636.235-1.896-.417.401-1.177 1.359-2.172.88l.495 4.932s1.359 1.057 5.432 1.057 5.489-1.057 5.489-1.057l.641-5.713c-.521.521-2.157 1.416-2.256.401-.077-.819 1.776-1.995 1.297-2.021zM23.131.891l-3.547 3.735-.652 2.536c2.511.156 4.256.516 4.256.921 0 .563-3.219 1.011-7.188 1.011s-7.188-.457-7.188-1.015c0-.557 3.219-1.021 7.188-1.021.563 0 1.125 0 1.688.021l.744-3.032L22.197.052c.095-.12.376-.021.636.199.255.203.396.457.317.577v.041zM18.016 8.62s-.699 0-.813-.109a.178.178 0 01-.047-.12c0-.079.052-.12.12-.145l.057.099c-.027.011-.036.02-.041.031 0 .057.416.095.739.089.319-.005.709-.032.709-.084 0-.016-.032-.031-.084-.047l.063-.093c.084.025.156.077.156.161 0 .145-.187.172-.307.187-.141.021-.547.032-.547.032z"/></symbol><symbol id="icon-html" viewBox="-27 0 512 512"><path d="M0 0l44.266 461.5 185.16 50.5 185.164-50.5L458.855 0zm386.477 437.82l-157.051 42.832L72.379 437.82 33.28 30.242h392.29zm0 0"/><path d="M99.637 275.934h178.261l-2.945 45.933-44.363 14.48-46.735-14.437v-25.039H98.04v86.219l132.527 41.219 123.489-35.918 16.086-194.914-193.957-2.227-2.243-20.055 196.864.004V88.465H78.71zm240.93-157.227v22.25l-200.438-.008 8.973 80.235 188.226 2.16-11.7 141.816-94.769 27.567-102.574-31.903v-33.707h25.328v17.102l77.227 23.86 72.98-23.821 6.32-98.567H126.692l-14.175-126.984zm0 0"/></symbol><symbol id="icon-instagram" viewBox="0 0 24 24"> <path d="M 8 3 C 5.243 3 3 5.243 3 8 L 3 16 C 3 18.757 5.243 21 8 21 L 16 21 C 18.757 21 21 18.757 21 16 L 21 8 C 21 5.243 18.757 3 16 3 L 8 3 z M 8 5 L 16 5 C 17.654 5 19 6.346 19 8 L 19 16 C 19 17.654 17.654 19 16 19 L 8 19 C 6.346 19 5 17.654 5 16 L 5 8 C 5 6.346 6.346 5 8 5 z M 17 6 A 1 1 0 0 0 16 7 A 1 1 0 0 0 17 8 A 1 1 0 0 0 18 7 A 1 1 0 0 0 17 6 z M 12 7 C 9.243 7 7 9.243 7 12 C 7 14.757 9.243 17 12 17 C 14.757 17 17 14.757 17 12 C 17 9.243 14.757 7 12 7 z M 12 9 C 13.654 9 15 10.346 15 12 C 15 13.654 13.654 15 12 15 C 10.346 15 9 13.654 9 12 C 9 10.346 10.346 9 12 9 z"/></symbol><symbol id="icon-js" viewBox="0 0 512 512"><path fill="#f07" d="M0 512h512V0H0z"/><path d="M397.241 476.69c-43.811 0-79.448-35.646-79.448-79.448a8.826 8.826 0 018.828-8.828 8.826 8.826 0 018.828 8.828c0 34.074 27.727 61.793 61.793 61.793s61.793-27.719 61.793-61.793-27.727-61.793-61.793-61.793c-43.811 0-79.448-35.646-79.448-79.448s35.637-79.448 79.448-79.448S476.69 212.198 476.69 256a8.826 8.826 0 01-8.828 8.828 8.826 8.826 0 01-8.828-8.828c0-34.074-27.727-61.793-61.793-61.793S335.448 221.926 335.448 256s27.727 61.793 61.793 61.793c43.811 0 79.448 35.646 79.448 79.448s-35.636 79.449-79.448 79.449m-185.379 0c-43.811 0-79.448-35.646-79.448-79.448 0-4.873 3.946-8.828 8.828-8.828s8.828 3.955 8.828 8.828c0 34.074 27.727 61.793 61.793 61.793s61.793-27.719 61.793-61.793V185.379c0-4.873 3.946-8.828 8.828-8.828s8.828 3.955 8.828 8.828v211.862c-.002 43.803-35.639 79.449-79.45 79.449" fill="#fff"/></symbol><symbol id="icon-left"><g filter="url(#filter0_d)"><path d="M10.784 29.504L37.657 5.76a1.02 1.02 0 00.254-.333.922.922 0 000-.788 1.027 1.027 0 00-.254-.333 1.191 1.191 0 00-.38-.226 1.305 1.305 0 00-.898 0 1.191 1.191 0 00-.38.226L8.343 28.765a1.03 1.03 0 00-.254.336.933.933 0 000 .794c.059.126.145.24.254.337l27.654 24.472c.225.191.525.297.836.296a1.28 1.28 0 00.645-.178c.19-.114.34-.275.427-.463a.925.925 0 00.066-.594 1.003 1.003 0 00-.315-.528L10.784 29.504z" fill="#283645"/><path d="M10.784 29.504L37.657 5.76a1.02 1.02 0 00.254-.333.922.922 0 000-.788 1.027 1.027 0 00-.254-.333 1.191 1.191 0 00-.38-.226 1.305 1.305 0 00-.898 0 1.191 1.191 0 00-.38.226L8.343 28.765a1.03 1.03 0 00-.254.336.933.933 0 000 .794c.059.126.145.24.254.337l27.654 24.472c.225.191.525.297.836.296a1.28 1.28 0 00.645-.178c.19-.114.34-.275.427-.463a.925.925 0 00.066-.594 1.003 1.003 0 00-.315-.528L10.784 29.504z" stroke="#000" stroke-width="7"/></g></symbol><symbol id="icon-link"><g clip-path="url(#clip0)"><path fill-rule="evenodd" clip-rule="evenodd" d="M0 1.4L4.6 6 0 10.6 1.4 12l6-6-6-6L0 1.4z" fill="#fff"/></g></symbol><symbol id="icon-logo"><path d="M30.75 36.327c-.657 0-1.19.512-1.19 1.143s.533 1.143 1.19 1.143h.011c.657 0 1.184-.512 1.184-1.143s-.538-1.143-1.195-1.143zM6.62 32.09a1.223 1.223 0 00-1.682 0 1.13 1.13 0 00-.349.808c0 .302.127.596.349.808a1.224 1.224 0 001.681 0c.222-.212.35-.507.35-.808 0-.3-.128-.595-.35-.808z" fill="#000"/><path d="M56.09.437H5.185C2.429.437.188 2.591.188 5.237V37.47c0 3.151 2.668 5.715 5.948 5.715h18.079v4.343h-1.666c-2.754 0-4.995 2.154-4.995 4.801v.914c0 .632.532 1.143 1.19 1.143H42.53c.657 0 1.19-.511 1.19-1.143v-.914c0-2.647-2.241-4.8-4.996-4.8H37.06v-4.344h18.08c3.278 0 5.946-2.564 5.946-5.715V5.238c0-2.647-2.24-4.8-4.995-4.8zM38.726 49.814c1.363 0 2.486 1.007 2.606 2.286H19.943c.121-1.28 1.244-2.286 2.606-2.286h16.176zM26.593 47.53v-4.344h8.088v4.343h-8.088zm32.114-10.06c0 1.892-1.6 3.43-3.568 3.43H6.136c-1.968 0-3.569-1.538-3.569-3.43V5.239c0-1.387 1.174-2.515 2.617-2.515h24.264v29.032H10.06c-.657 0-1.19.512-1.19 1.143 0 .632.533 1.143 1.19 1.143h48.646v3.429zm0-5.714h-26.88V2.723H56.09c1.442 0 2.616 1.128 2.616 2.515v26.517z" fill="#000"/><path d="M53.965 5.01H35.41c-.657 0-1.19.51-1.19 1.142v8.23c0 .63.533 1.143 1.19 1.143h18.555c.657 0 1.19-.512 1.19-1.143v-8.23c0-.631-.533-1.143-1.19-1.143zm-1.19 8.229H36.6V7.295h16.175v5.944zm-37.651 4.343H7.37c-.657 0-1.19.511-1.19 1.143 0 .631.533 1.143 1.19 1.143h7.754c.657 0 1.19-.512 1.19-1.143 0-.632-.533-1.143-1.19-1.143zm10.016 0h-5.923c-.656 0-1.189.511-1.189 1.143 0 .631.533 1.143 1.19 1.143h5.922c.657 0 1.19-.512 1.19-1.143 0-.632-.533-1.143-1.19-1.143zm0 9.142h-2.214c-.657 0-1.19.512-1.19 1.143 0 .632.533 1.143 1.19 1.143h2.214c.657 0 1.19-.511 1.19-1.143 0-.63-.533-1.143-1.19-1.143zm-6.957.002H7.37c-.657 0-1.19.511-1.19 1.143 0 .63.533 1.143 1.19 1.143h10.813c.657 0 1.19-.512 1.19-1.143 0-.632-.533-1.143-1.19-1.143zm-6.936-4.572H7.37c-.657 0-1.19.511-1.19 1.142 0 .632.533 1.143 1.19 1.143h3.877c.657 0 1.19-.511 1.19-1.143 0-.63-.533-1.142-1.19-1.142zm13.893 0h-8.18c-.658 0-1.19.511-1.19 1.142 0 .632.532 1.143 1.19 1.143h8.18c.657 0 1.19-.511 1.19-1.143 0-.63-.533-1.142-1.19-1.142zm28.825-4.572H35.463c-.657 0-1.19.511-1.19 1.143 0 .631.533 1.143 1.19 1.143h18.502c.657 0 1.19-.512 1.19-1.143 0-.632-.533-1.143-1.19-1.143zm.841 9.478a1.22 1.22 0 00-1.682 0 1.123 1.123 0 00-.348.809c0 .3.126.595.348.808a1.222 1.222 0 001.682 0 1.13 1.13 0 00.349-.808c0-.302-.128-.596-.349-.808zm-5.673-.334h-13.67c-.657 0-1.19.511-1.19 1.143 0 .63.533 1.143 1.19 1.143h13.67c.656 0 1.189-.512 1.189-1.143 0-.632-.533-1.143-1.19-1.143zm4.832-4.572H35.463c-.657 0-1.19.511-1.19 1.142 0 .632.533 1.143 1.19 1.143h18.502c.657 0 1.19-.511 1.19-1.143 0-.63-.533-1.142-1.19-1.142zM6.283 11.204l1.642-1.837c.34-.38.34-.998 0-1.378a.808.808 0 00-1.232 0l-2.258 2.526c-.34.38-.34.997 0 1.378l2.258 2.525c.17.19.393.286.616.286a.824.824 0 00.616-.286c.34-.38.34-.997 0-1.378l-1.642-1.836zm20.835-.689L24.86 7.989a.807.807 0 00-1.232 0c-.34.38-.34.998 0 1.378l1.642 1.837-1.642 1.837c-.34.38-.34.997 0 1.378.17.19.393.285.616.285a.824.824 0 00.616-.285l2.258-2.526c.34-.38.34-.998 0-1.378zM10.663 12.77l1.309-4.058h.923L11 13.995h-.688L8.396 8.712h.923l1.343 4.058zm4.844 0l1.308-4.058h.923l-1.894 5.283h-.689l-1.914-5.283h.923l1.343 4.058zm4.844 0l1.308-4.058h.923l-1.895 5.283H20l-1.914-5.283h.923l1.343 4.058z" fill="#000"/></symbol><symbol id="icon-menu-btn"><path d="M1.137 0a1.25 1.25 0 00-.439.07C.558.12.432.195.326.288A.98.98 0 00.08.614.877.877 0 000 1v2c0 .265.12.52.333.707.213.188.502.293.804.293h47.726c.15.003.3-.021.439-.07.14-.05.266-.123.372-.217a.98.98 0 00.246-.327A.877.877 0 0050 3V1c0-.265-.12-.52-.333-.707A1.22 1.22 0 0048.863 0H1.137zm0 10a1.25 1.25 0 00-.439.07c-.14.05-.266.123-.372.217a.98.98 0 00-.246.327A.877.877 0 000 11v2c0 .265.12.52.333.707.213.188.502.293.804.293h47.726c.15.003.3-.021.439-.07.14-.05.266-.123.372-.217a.98.98 0 00.246-.327A.877.877 0 0050 13v-2c0-.265-.12-.52-.333-.707a1.22 1.22 0 00-.804-.293H1.137zm0 10a1.25 1.25 0 00-.439.07c-.14.05-.266.123-.372.217a.98.98 0 00-.246.327A.877.877 0 000 21v2c0 .265.12.52.333.707.213.187.502.293.804.293h47.726c.15.003.3-.021.439-.07.14-.05.266-.124.372-.217a.98.98 0 00.246-.327A.877.877 0 0050 23v-2c0-.265-.12-.52-.333-.707a1.22 1.22 0 00-.804-.293H1.137z" fill="#f07"/></symbol><symbol id="icon-phone"><path d="M3.456 6.624c-.084-1.198.182-2.378.885-3.327.61-.86 1.404-1.33 2.362-1.605.806-.24 1.334.054 1.567.95.332 1.34.806 2.68.978 4.092.055.62-.347 1.5-.782 1.952-1.09 1.073-.863 1.854-.036 3.478.257.524.664 1.43 1.459 2.628.827 1.207 1.265 1.855 2.328 1.306 1.18-.594 2.041-.212 2.932.746.604.693 1.269 1.288 1.873 1.98.872 1.03.833 1.74.15 2.467-1.229 1.34-3.258 1.783-4.768.886-.833-.489-1.664-1.128-2.325-1.874-2.914-3.32-5.016-7.182-6.281-11.54a10.989 10.989 0 01-.342-2.139z" stroke="#f07" stroke-width="2" stroke-miterlimit="10"/></symbol><symbol id="icon-photoshop" viewBox="0 0 54 54"><path d="M19.68 14.8h-6.52V28h6.68c.96 0 1.773-.187 2.44-.56.666-.374 1.153-.773 1.46-1.2.306-.427.546-1.04.72-1.84.173-.801.267-1.4.28-1.801.013-.399.02-.973.02-1.72 0-4.052-1.694-6.079-5.08-6.079z"/><path d="M41.824 0H12.176C5.462 0 0 5.462 0 12.176v29.648C0 48.538 5.462 54 12.176 54h29.648C48.538 54 54 48.538 54 41.824V12.176C54 5.462 48.538 0 41.824 0zM27.56 23.26c-.054.681-.22 1.534-.5 2.561-.28 1.026-.66 1.866-1.14 2.52-.48.654-1.213 1.227-2.2 1.72-.987.494-2.16.74-3.52.74h-7.04V40h-2.88V12h9.64c2.613 0 4.553.813 5.82 2.44 1.266 1.626 1.9 3.76 1.9 6.399 0 .934-.027 1.741-.08 2.421zM43.2 38.94c-1.2 1.106-2.954 1.66-5.26 1.66-2.307 0-4.114-.547-5.42-1.64-1.307-1.093-1.987-2.44-2.04-4.04l2.8-.12c.106.987.6 1.754 1.48 2.3.88.547 1.893.82 3.04.82s2.14-.26 2.98-.78c.84-.52 1.26-1.266 1.26-2.239s-.36-1.747-1.08-2.32c-.72-.573-1.6-1.026-2.64-1.36-1.04-.333-2.086-.686-3.14-1.06a7.36 7.36 0 01-2.78-1.76c-.987-.934-1.48-2.073-1.48-3.42s.54-2.601 1.62-3.761 2.833-1.739 5.26-1.739c.854 0 1.653.1 2.4.3.746.2 1.28.394 1.6.58l.48.279-.92 2.521c-.854-.666-1.974-1-3.36-1-1.387 0-2.42.26-3.1.78-.68.52-1.02 1.18-1.02 1.979 0 .88.426 1.574 1.28 2.08.853.507 1.813.934 2.88 1.28 1.066.347 2.126.733 3.18 1.16 1.053.427 1.946 1.094 2.68 2s1.1 2.106 1.1 3.6c0 1.494-.6 2.794-1.8 3.9z"/></symbol><symbol id="icon-play"><path fill-rule="evenodd" clip-rule="evenodd" d="M.6.4l13 9.1-13 9.1V.4z" fill="#070707"/></symbol><symbol id="icon-right"><g filter="url(#filter0_d)"><path d="M35.216 29.496L8.343 53.24a1.027 1.027 0 00-.254.333.922.922 0 000 .788c.06.125.145.238.254.333.109.097.238.174.38.226a1.304 1.304 0 00.899 0 1.19 1.19 0 00.38-.226l27.654-24.46c.109-.096.195-.21.255-.336a.933.933 0 000-.794 1.037 1.037 0 00-.255-.337L10.002 4.296A1.287 1.287 0 009.166 4a1.28 1.28 0 00-.645.178c-.19.114-.34.275-.427.463a.925.925 0 00-.066.594c.044.2.154.383.315.528l26.873 23.733z" fill="#283645"/><path d="M35.216 29.496L8.343 53.24a1.027 1.027 0 00-.254.333.922.922 0 000 .788c.06.125.145.238.254.333.109.097.238.174.38.226a1.304 1.304 0 00.899 0 1.19 1.19 0 00.38-.226l27.654-24.46c.109-.096.195-.21.255-.336a.933.933 0 000-.794 1.037 1.037 0 00-.255-.337L10.002 4.296A1.287 1.287 0 009.166 4a1.28 1.28 0 00-.645.178c-.19.114-.34.275-.427.463a.925.925 0 00-.066.594c.044.2.154.383.315.528l26.873 23.733z" stroke="#000" stroke-width="7"/></g></symbol><symbol id="icon-sass" viewBox="0 0 512 512"><path d="M512 256c0 7.91-.355 15.726-1.066 23.448a245.065 245.065 0 01-2.299 18.119C488.782 419.182 383.227 512 256 512c-64.805 0-123.977-24.074-169.075-63.781a256.87 256.87 0 01-43.802-49.977C15.882 357.564 0 308.632 0 256 0 114.615 114.615 0 256 0s256 114.615 256 256z" fill="#f07"/><path d="M446.767 284.975c-7.764 2.936-7.45 2.988-11.557-4.493-5.245-9.529-8.035-19.55-8.276-30.448-.199-9.352 2.361-18.045 5.58-26.572 2.57-6.781-.773-9.174-6.646-9.791-4.274-.439-8.683-.397-12.967.042-11.139 1.139-12.236 2.1-15.193 12.915-1.755 6.416-3.156 12.884-6.071 18.975-7.189 14.994-15.36 29.435-23.74 43.771-1.505 2.581-2.748 5.36-4.869 7.565-6.071-9.091-8.359-19.132-8.871-29.665-.512-10.397 2.675-20.062 6.175-29.623 1.181-3.218.199-5.214-2.581-6.604-1.233-.616-2.612-1.191-3.96-1.296-7.147-.564-14.273-.481-21.243 1.473-3.135.867-5.183 2.623-5.883 6.144a93.771 93.771 0 01-6.343 20.01c-7.941 17.826-15.83 35.683-23.761 53.52-6.896 15.496-13.688 31.033-21.859 45.913-.575 1.055-1.055 2.884-2.497 2.518-1.463-.366-.951-2.163-1.014-3.396-.47-8.777 1.923-17.147 3.96-25.527 3.229-13.26 6.76-26.457 10.188-39.675.982-3.793-.669-6.343-3.814-8.161-4.524-2.602-9.028-2.727-13.928.919.669-5.392.961-10.125.731-14.858-.522-10.553-5.413-17.418-13.928-19.007-6.217-1.16-12.1.648-17.659 3.281-12.957 6.134-23.374 15.381-32.131 26.603-1.024 1.306-2.058 2.508-3.542 3.312-16.436 8.955-32.862 17.91-49.256 26.948-1.797 1.003-2.957.721-4.253-.669-8.255-8.85-17.836-16.154-27.324-23.562-13.26-10.365-26.979-20.187-38.421-32.684-6.687-7.314-12.267-15.329-15.057-25.004-4.556-15.82-1.149-30.553 6.437-44.554 8.976-16.562 22.288-29.351 36.968-40.741 23.312-18.077 48.88-32.434 75.828-44.251 30.177-13.218 61.482-21.734 94.824-20.449 13.208.512 26.028 2.8 37.794 9.268 8.328 4.577 13.845 11.191 15.402 20.898 1.829 11.368-.899 21.87-5.945 31.828-11.274 22.246-29.194 38.003-50.375 50.343-17.638 10.271-36.665 16.792-56.801 20.208-11.128 1.891-22.298 3.03-33.489 1.327-12.842-1.954-24.712-6.248-33.499-16.593-1.014-1.191-2.299-2.017-4.023-1.181-1.766.857-1.63 2.424-1.463 3.929.125 1.034.408 2.079.773 3.062 2.351 6.343 6.75 11.128 11.901 15.308 13.396 10.898 29.268 14.096 45.934 14.42 16.311.324 32.371-1.745 48.264-5.548 35.85-8.568 65.881-26.154 87.803-56.289 13.103-18.014 21.4-37.867 20.668-60.583-.47-14.409-5.319-27.136-15.82-37.48-12.487-12.278-27.982-18.453-44.607-22.162-18.516-4.117-37.219-4.702-56.111-2.445-16.436 1.964-32.496 5.329-48.128 10.71-23.918 8.244-47.02 18.369-69.13 30.678-22.653 12.601-44.001 27.032-62.725 45.108-16.572 15.997-30.814 33.646-38.839 55.557-3.427 9.383-5.893 19.028-3.594 29.174 2.947 13.061 9.383 24.367 17.847 34.565 12.8 15.444 28.505 27.606 44.701 39.225 13.009 9.341 26.624 17.847 39.121 27.888 3.542 2.842 3.521 2.842-.648 5.026-4.869 2.539-9.791 4.984-14.576 7.69-19.298 10.91-37.949 22.738-53.174 39.175-7.492 8.098-12.581 17.189-14.952 27.282a256.811 256.811 0 0043.802 49.977c28.432-2.215 50.197-17.011 66.278-41.482 7.764-11.818 11.4-25.192 12.769-39.299 1.202-12.434-.063-24.472-3.72-36.342-.637-2.09-3.009-4.169-2.079-6.008.867-1.693 3.48-2.55 5.402-3.657 7.753-4.504 15.527-8.944 23.51-13.531.345 1.714-.324 2.717-.616 3.803-4.577 16.792-7.764 33.719-4.284 51.169 2.163 10.867 5.768 21.096 12.622 30.093 7.053 9.258 22.8 8.202 29.194-.251 6.071-8.025 10.094-17.074 14.284-26.081 2.299-4.932 4.409-9.947 6.604-14.932-.408 5.998-.387 11.849-.167 17.68.219 5.747 1.139 11.421 4.127 16.499 3.594 6.102 10.355 7.879 16.635 4.618 6.625-3.438 11.139-9.101 14.649-15.245 15.057-26.425 29.027-53.415 40.594-81.596 2.466-5.987 4.995-11.964 7.785-18.62.428 2.184.711 3.521.972 4.859 2.57 13.427 7.147 26.133 13.772 38.076 1.421 2.56 1.264 4.326-.533 6.781-6.102 8.307-12.79 16.123-19.383 24.022-5.538 6.646-11.463 12.999-16.144 20.313-4.2 6.583-1.787 13.322 5.204 14.817 2.152.46 4.42.596 6.625.564 12.215-.146 23.489-3.793 33.991-9.77 14.137-8.056 22.518-19.864 22.131-36.676-.178-7.649-2.247-14.994-5.329-22.006-.679-1.557-.711-2.685.303-4.148 9.791-14.023 18.442-28.724 26.394-43.854 1.411-2.664 2.403-5.622 4.681-8.223.303 1.055.543 1.714.679 2.393 2.529 12.539 5.935 24.795 12.33 35.986 1.755 3.062.878 4.618-1.546 6.666-8.349 7.095-15.391 15.37-20.919 24.848-4.305 7.377-7.252 15.255-7.22 23.897.031 9.613 7.387 15.276 16.76 13.019 9.77-2.341 18.829-6.322 26.958-12.267 17.711-12.967 22.904-26.645 17.356-45.735-2.173-7.513-2.132-7.387 5.402-9.665 16.478-4.974 33.196-5.183 49.998-2.445 1.902.313 3.783.669 5.642 1.076a245.533 245.533 0 002.299-18.119c-21.494-5.254-42.957-2.527-64.168 5.529zM98.586 419.401c-4.775 1.693-9.738 2.414-14.817 2.017-6.322-.502-10.334-4.963-10.742-11.672-.46-7.732 1.829-14.712 5.214-21.504 6.154-12.33 16.488-20.699 27.032-28.912 10.25-7.993 21.264-14.817 32.402-21.452 3.375-2.006 3.427-1.985 4.2 2.038 1.003 5.162 1.902 10.334 1.567 15.026.879 28.138-19.559 55.504-44.856 64.459zm153.37-141.887c-1.776 11.86-5.653 23.155-9.78 34.314-5.622 15.235-11.097 30.542-18.171 45.192-1.62 3.375-3.323 6.729-5.945 9.477-2.476 2.602-4.671 2.299-6.384-.878-3.344-6.207-2.926-13.113-3.469-18.129.157-25.161 8.6-45.725 22.507-64.209 3.887-5.151 8.85-9.341 15.423-11.024 4.461-1.137 6.519.66 5.819 5.257zm97.385 74.491c-4.765 8.234-11.63 14.221-20.052 18.484-.899.449-2.058 1.243-2.873.188-.773-.993.47-1.651 1.034-2.278 8.37-9.143 16.635-18.359 24.085-28.275.115-.157.397-.178 1.034-.449-.073 4.588-1.076 8.621-3.228 12.33zm57.793-.355c-1.243.585-2.685 1.682-3.897.742-1.337-1.034-.805-2.863-.397-4.263 1.902-6.384 4.462-12.497 7.993-18.192 2.967-4.796 6.646-8.986 10.689-12.894 1.63-1.567 2.361-1.379 2.915.878.575 2.309.627 4.618.669 6.969-.104 12.863-6.635 21.421-17.972 26.76z" fill="#fff"/></symbol><symbol id="icon-telegram"><path d="M44.377 5.986c-.487.022-.961.157-1.389.328-.423.17-2.86 1.21-6.457 2.748a20314.52 20314.52 0 00-12.91 5.528c-9.272 3.972-18.383 7.88-18.383 7.88l.067-.025s-.55.184-1.108.573a3.078 3.078 0 00-.824.81 2.145 2.145 0 00-.357 1.432c.237 1.925 2.232 2.47 2.232 2.47l.008.004 8.902 3.047c.227.757 2.7 9.012 3.244 10.76.3.966.582 1.524.875 1.904.147.19.301.338.471.446.068.042.139.075.209.103h.004c.009.004.017.004.025.008l-.023-.006c.016.007.032.018.049.024.031.01.05.01.092.02 1.02.355 1.863-.306 1.863-.306l.035-.027 5.469-5.072 8.875 6.92.111.05c1.553.69 2.958.305 3.736-.328s1.084-1.449 1.084-1.449l.034-.086 6.521-33.99c.167-.76.19-1.418.033-2.012-.157-.594-.54-1.11-1.02-1.396a2.588 2.588 0 00-1.468-.358zm.053 2.034c.197-.01.344.013.39.04.047.028.067.024.112.192.044.167.068.52-.053 1.072l-.004.012-6.484 33.793c-.016.034-.15.347-.46.598-.314.256-.664.456-1.593.066l-9.705-7.568-.274-.215-.005.006-2.903-2.178 16.31-19.19A1 1 0 0038.976 13a1 1 0 00-.53.168L14.844 28.902 5.928 25.85s-.886-.493-.928-.836c-.002-.02-.013-.002.033-.07.046-.07.162-.185.307-.286.29-.202.62-.324.62-.324l.034-.012.033-.013s9.112-3.91 18.383-7.881c4.636-1.986 9.312-3.988 12.908-5.526 3.596-1.537 6.194-2.644 6.414-2.732.25-.1.5-.141.698-.15zM33.613 18.793L21.244 33.346l-.006.006a1 1 0 00-.054.072 1 1 0 00-.055.084 1 1 0 00-.131.385 1 1 0 000 .007l-1.611 7.246c-.027-.078-.046-.106-.075-.199v-.002a2314.72 2314.72 0 01-3.167-10.506l17.468-11.646zM22.641 35.73l2.222 1.668-3.265 3.028 1.043-4.696z"/></symbol><symbol id="icon-vk " viewBox="0 0 548.358 548.358">
<g>
	<path d="M545.451,400.298c-0.664-1.431-1.283-2.618-1.858-3.569c-9.514-17.135-27.695-38.167-54.532-63.102l-0.567-0.571
		l-0.284-0.28l-0.287-0.287h-0.288c-12.18-11.611-19.893-19.418-23.123-23.415c-5.91-7.614-7.234-15.321-4.004-23.13
		c2.282-5.9,10.854-18.36,25.696-37.397c7.807-10.089,13.99-18.175,18.556-24.267c32.931-43.78,47.208-71.756,42.828-83.939
		l-1.701-2.847c-1.143-1.714-4.093-3.282-8.846-4.712c-4.764-1.427-10.853-1.663-18.278-0.712l-82.224,0.568
		c-1.332-0.472-3.234-0.428-5.712,0.144c-2.475,0.572-3.713,0.859-3.713,0.859l-1.431,0.715l-1.136,0.859
		c-0.952,0.568-1.999,1.567-3.142,2.995c-1.137,1.423-2.088,3.093-2.848,4.996c-8.952,23.031-19.13,44.444-30.553,64.238
		c-7.043,11.803-13.511,22.032-19.418,30.693c-5.899,8.658-10.848,15.037-14.842,19.126c-4,4.093-7.61,7.372-10.852,9.849
		c-3.237,2.478-5.708,3.525-7.419,3.142c-1.715-0.383-3.33-0.763-4.859-1.143c-2.663-1.714-4.805-4.045-6.42-6.995
		c-1.622-2.95-2.714-6.663-3.285-11.136c-0.568-4.476-0.904-8.326-1-11.563c-0.089-3.233-0.048-7.806,0.145-13.706
		c0.198-5.903,0.287-9.897,0.287-11.991c0-7.234,0.141-15.085,0.424-23.555c0.288-8.47,0.521-15.181,0.716-20.125
		c0.194-4.949,0.284-10.185,0.284-15.705s-0.336-9.849-1-12.991c-0.656-3.138-1.663-6.184-2.99-9.137
		c-1.335-2.95-3.289-5.232-5.853-6.852c-2.569-1.618-5.763-2.902-9.564-3.856c-10.089-2.283-22.936-3.518-38.547-3.71
		c-35.401-0.38-58.148,1.906-68.236,6.855c-3.997,2.091-7.614,4.948-10.848,8.562c-3.427,4.189-3.905,6.475-1.431,6.851
		c11.422,1.711,19.508,5.804,24.267,12.275l1.715,3.429c1.334,2.474,2.666,6.854,3.999,13.134c1.331,6.28,2.19,13.227,2.568,20.837
		c0.95,13.897,0.95,25.793,0,35.689c-0.953,9.9-1.853,17.607-2.712,23.127c-0.859,5.52-2.143,9.993-3.855,13.418
		c-1.715,3.426-2.856,5.52-3.428,6.28c-0.571,0.76-1.047,1.239-1.425,1.427c-2.474,0.948-5.047,1.431-7.71,1.431
		c-2.667,0-5.901-1.334-9.707-4c-3.805-2.666-7.754-6.328-11.847-10.992c-4.093-4.665-8.709-11.184-13.85-19.558
		c-5.137-8.374-10.467-18.271-15.987-29.691l-4.567-8.282c-2.855-5.328-6.755-13.086-11.704-23.267
		c-4.952-10.185-9.329-20.037-13.134-29.554c-1.521-3.997-3.806-7.04-6.851-9.134l-1.429-0.859c-0.95-0.76-2.475-1.567-4.567-2.427
		c-2.095-0.859-4.281-1.475-6.567-1.854l-78.229,0.568c-7.994,0-13.418,1.811-16.274,5.428l-1.143,1.711
		C0.288,140.146,0,141.668,0,143.763c0,2.094,0.571,4.664,1.714,7.707c11.42,26.84,23.839,52.725,37.257,77.659
		c13.418,24.934,25.078,45.019,34.973,60.237c9.897,15.229,19.985,29.602,30.264,43.112c10.279,13.515,17.083,22.176,20.412,25.981
		c3.333,3.812,5.951,6.662,7.854,8.565l7.139,6.851c4.568,4.569,11.276,10.041,20.127,16.416
		c8.853,6.379,18.654,12.659,29.408,18.85c10.756,6.181,23.269,11.225,37.546,15.126c14.275,3.905,28.169,5.472,41.684,4.716h32.834
		c6.659-0.575,11.704-2.669,15.133-6.283l1.136-1.431c0.764-1.136,1.479-2.901,2.139-5.276c0.668-2.379,1-5,1-7.851
		c-0.195-8.183,0.428-15.558,1.852-22.124c1.423-6.564,3.045-11.513,4.859-14.846c1.813-3.33,3.859-6.14,6.136-8.418
		c2.282-2.283,3.908-3.666,4.862-4.142c0.948-0.479,1.705-0.804,2.276-0.999c4.568-1.522,9.944-0.048,16.136,4.429
		c6.187,4.473,11.99,9.996,17.418,16.56c5.425,6.57,11.943,13.941,19.555,22.124c7.617,8.186,14.277,14.271,19.985,18.274
		l5.708,3.426c3.812,2.286,8.761,4.38,14.853,6.283c6.081,1.902,11.409,2.378,15.984,1.427l73.087-1.14
		c7.229,0,12.854-1.197,16.844-3.572c3.998-2.379,6.373-5,7.139-7.851c0.764-2.854,0.805-6.092,0.145-9.712
		C546.782,404.25,546.115,401.725,545.451,400.298z"/>
</g>
<g>
</g>
<g>
</g>
<g>
</g>
<g>
</g>
<g>
</g>
<g>
</g>
<g>
</g>
<g>
</g>
<g>
</g>
<g>
</g>
<g>
</g>
<g>
</g>
<g>
</g>
<g>
</g>
<g>
</g>
</symbol><symbol id="icon-vk" viewBox="0 0 20 20"><path d="M17.802 12.298s1.617 1.597 2.017 2.336a.127.127 0 0 1 .018.035c.163.273.203.487.123.645-.135.261-.592.392-.747.403h-2.858c-.199 0-.613-.052-1.117-.4-.385-.269-.768-.712-1.139-1.145-.554-.643-1.033-1.201-1.518-1.201a.548.548 0 0 0-.18.03c-.367.116-.833.639-.833 2.032 0 .436-.344.684-.585.684H9.674c-.446 0-2.768-.156-4.827-2.327C2.324 10.732.058 5.4.036 5.353c-.141-.345.155-.533.475-.533h2.886c.387 0 .513.234.601.444.102.241.48 1.205 1.1 2.288 1.004 1.762 1.621 2.479 2.114 2.479a.527.527 0 0 0 .264-.07c.644-.354.524-2.654.494-3.128 0-.092-.001-1.027-.331-1.479-.236-.324-.638-.45-.881-.496.065-.094.203-.238.38-.323.441-.22 1.238-.252 2.029-.252h.439c.858.012 1.08.067 1.392.146.628.15.64.557.585 1.943-.016.396-.033.842-.033 1.367 0 .112-.005.237-.005.364-.019.711-.044 1.512.458 1.841a.41.41 0 0 0 .217.062c.174 0 .695 0 2.108-2.425.62-1.071 1.1-2.334 1.133-2.429.028-.053.112-.202.214-.262a.479.479 0 0 1 .236-.056h3.395c.37 0 .621.056.67.196.082.227-.016.92-1.566 3.016-.261.349-.49.651-.691.915-1.405 1.844-1.405 1.937.083 3.337z"/></symbol><symbol id="icon-whatsapp" viewBox="0 0 128 128"><path d="M64 2C29.8 2 2 29.8 2 64c0 10.5 2.6 20.8 7.7 29.9l-5.3 19.4c-.9 3.1 0 6.3 2.3 8.6s5.5 3.2 8.6 2.4l20.2-5.3c8.8 4.6 18.6 7 28.6 7 34.2 0 62-27.8 62-62 0-16.6-6.4-32.1-18.1-43.8C96.2 8.5 80.6 2 64 2zm0 6c15 0 29.1 5.8 39.6 16.4C114.2 35 120.1 49.1 120 64c0 30.9-25.1 56-56 56-9.3 0-18.6-2.4-26.8-6.8-.4-.2-.9-.4-1.4-.4-.3 0-.5 0-.8.1l-21.3 5.6c-1.5.4-2.5-.4-2.9-.8-.4-.4-1.2-1.4-.8-2.9l5.6-20.6c.2-.8.1-1.6-.3-2.3C10.5 83.5 8 73.8 8 64 8 33.1 33.1 8 64 8zm0 9c-25.9 0-47 21-47 47a47 47 0 006.3 23.5c1.6 2.8 2 6.1 1.2 9.2l-2.9 10.5 11.2-2.9c1-.3 2-.4 3-.4 2 0 4 .5 5.7 1.5C48.4 109 56.1 111 64 111c25.9 0 47-21.1 47-47 0-12.6-4.9-24.4-13.8-33.3C88.4 21.9 76.6 17 64 17zM43.1 36.7h2.8c1.1 0 2.2.1 3.3 2.5 1.3 2.9 4.2 10.2 4.5 10.9.4.7.6 1.6.1 2.6s-.7 1.6-1.5 2.5c-.7.9-1.6 1.9-2.2 2.6-.7.7-1.5 1.5-.6 3s3.8 6.3 8.2 10.2c5.6 5 10.4 6.6 11.9 7.3 1.5.7 2.3.6 3.2-.4.9-1 3.7-4.3 4.7-5.8s2-1.2 3.3-.7c1.4.5 8.6 4.1 10.1 4.8 1.5.7 2.5 1.1 2.8 1.7.4.8.4 3.7-.8 7.2-1.2 3.4-7.2 6.8-10 7-2.7.2-5.2 1.2-17.7-3.7-15-5.9-24.5-21.3-25.2-22.3-.7-1-6-8-6-15.3 0-7.3 3.8-10.8 5.2-12.3 1.4-1.5 2.9-1.8 3.9-1.8z"/></symbol></svg>